<svg xmlns="http://www.w3.org/2000/svg" viewBox="0 0 31.82 31.82"><defs><style>.cls-1{isolation:isolate;}.cls-2{mix-blend-mode:multiply;}.cls-3{fill:#231f20;}</style></defs><title>Artboard 5 copy 2</title><g class="cls-1"><g id="Layer_22" data-name="Layer 22"><path class="cls-3" d="M15.91,0A15.91,15.91,0,1,0,31.82,15.91,15.93,15.93,0,0,0,15.91,0Zm0,30.81a14.9,14.9,0,1,1,14.9-14.9A14.91,14.91,0,0,1,15.91,30.81Z"/><path class="cls-3" d="M15.91,4.55A11.37,11.37,0,1,0,27.28,15.91,11.37,11.37,0,0,0,15.91,4.55Zm0,21.71A10.35,10.35,0,1,1,26.26,15.91,10.36,10.36,0,0,1,15.91,26.26Z"/><path class="cls-3" d="M15.91,7.79A8.12,8.12,0,1,0,24,15.91,8.14,8.14,0,0,0,15.91,7.79Zm0,15.23A7.11,7.11,0,1,1,23,15.91,7.12,7.12,0,0,1,15.91,23Z"/><circle id="_Path_" data-name="&lt;Path&gt;" class="cls-3" cx="15.91" cy="15.91" r="5.07"/></g></g></svg>