<svg xmlns="http://www.w3.org/2000/svg" viewBox="0 0 44.44 44.44"><defs><style>.cls-1{isolation:isolate;}.cls-2{mix-blend-mode:multiply;}.cls-3{fill:#231f20;}</style></defs><title>Artboard 5 copy</title><g class="cls-1"><g id="Layer_22" data-name="Layer 22"><path class="cls-3" d="M22.22,0A22.22,22.22,0,1,0,44.44,22.22,22.25,22.25,0,0,0,22.22,0Zm0,43.42a21.2,21.2,0,1,1,21.2-21.2A21.23,21.23,0,0,1,22.22,43.42Z"/><path class="cls-3" d="M22.22,6.31A15.91,15.91,0,1,0,38.13,22.22,15.93,15.93,0,0,0,22.22,6.31Zm0,30.81a14.9,14.9,0,1,1,14.89-14.9A14.91,14.91,0,0,1,22.22,37.12Z"/><path class="cls-3" d="M22.22,10.86A11.37,11.37,0,1,0,33.58,22.22,11.37,11.37,0,0,0,22.22,10.86Zm0,21.71A10.35,10.35,0,1,1,32.57,22.22,10.36,10.36,0,0,1,22.22,32.57Z"/><path class="cls-3" d="M22.22,14.1a8.12,8.12,0,1,0,8.12,8.12A8.13,8.13,0,0,0,22.22,14.1Zm0,15.22a7.1,7.1,0,1,1,7.1-7.1A7.11,7.11,0,0,1,22.22,29.32Z"/><circle id="_Path_" data-name="&lt;Path&gt;" class="cls-3" cx="22.22" cy="22.22" r="5.07"/></g></g></svg>