<svg xmlns="http://www.w3.org/2000/svg" viewBox="0 0 62.21 62.21"><defs><style>.cls-1{isolation:isolate;}.cls-2{mix-blend-mode:multiply;}.cls-3{fill:#231f20;}</style></defs><title>Artboard 5</title><g class="cls-1"><g id="Layer_22" data-name="Layer 22"><path class="cls-3" d="M31.1,8.89A22.22,22.22,0,1,0,53.32,31.1,22.23,22.23,0,0,0,31.1,8.89Zm0,43.42A21.21,21.21,0,1,1,52.31,31.1,21.23,21.23,0,0,1,31.1,52.31Z"/><path class="cls-3" d="M31.1,15.19A15.92,15.92,0,1,0,47,31.1,15.93,15.93,0,0,0,31.1,15.19ZM31.1,46A14.9,14.9,0,1,1,46,31.1,14.91,14.91,0,0,1,31.1,46Z"/><path class="cls-3" d="M31.1,19.74A11.37,11.37,0,1,0,42.47,31.1,11.38,11.38,0,0,0,31.1,19.74Zm0,21.72A10.36,10.36,0,1,1,41.46,31.1,10.37,10.37,0,0,1,31.1,41.46Z"/><path class="cls-3" d="M31.1,23a8.12,8.12,0,1,0,8.12,8.11A8.12,8.12,0,0,0,31.1,23Zm0,15.22a7.11,7.11,0,1,1,7.11-7.11A7.12,7.12,0,0,1,31.1,38.21Z"/><circle id="_Path_" data-name="&lt;Path&gt;" class="cls-3" cx="31.11" cy="31.1" r="5.07"/><path class="cls-3" d="M31.1,0A31.11,31.11,0,1,0,62.21,31.1,31.13,31.13,0,0,0,31.1,0Zm0,61.19A30.09,30.09,0,1,1,61.19,31.1,30.12,30.12,0,0,1,31.1,61.19Z"/></g></g></svg>