<svg xmlns="http://www.w3.org/2000/svg" viewBox="0 0 22.73 22.73"><defs><style>.cls-1{isolation:isolate;}.cls-2{mix-blend-mode:multiply;}.cls-3{fill:#231f20;}</style></defs><title>Artboard 5 copy 3</title><g class="cls-1"><g id="Layer_22" data-name="Layer 22"><path class="cls-3" d="M11.37,0A11.37,11.37,0,1,0,22.73,11.37,11.38,11.38,0,0,0,11.37,0Zm0,21.72A10.36,10.36,0,1,1,21.72,11.37,10.37,10.37,0,0,1,11.37,21.72Z"/><path class="cls-3" d="M11.37,3.25a8.12,8.12,0,1,0,8.11,8.12A8.13,8.13,0,0,0,11.37,3.25Zm0,15.22a7.11,7.11,0,1,1,7.1-7.1A7.12,7.12,0,0,1,11.37,18.47Z"/><circle id="_Path_" data-name="&lt;Path&gt;" class="cls-3" cx="11.37" cy="11.37" r="5.07"/></g></g></svg>