<svg xmlns="http://www.w3.org/2000/svg" viewBox="0 0 20.154 20.154"><defs><style>.cls-1{isolation:isolate;}.cls-2{mix-blend-mode:multiply;}.cls-3{fill:#6c5a44;}.cls-4{fill:#231f20;}</style></defs><title>ARILARY SHELLS</title><g class="cls-1"><g id="Isolation_Mode" data-name="Isolation Mode"><rect class="cls-3" x="0.749" y="0.749" width="18.656" height="18.656" rx="9.328" ry="9.328"/><path class="cls-4" d="M10.077,20.155A10.078,10.078,0,1,1,20.155,10.077,10.09,10.09,0,0,1,10.077,20.155Zm0-18.655a8.578,8.578,0,1,0,8.578,8.577A8.587,8.587,0,0,0,10.077,1.5Z"/><path class="cls-4" d="M13.36,3.089H6.794v.726h.9v8.623a2.992,2.992,0,0,0,.633,1.839L9.4,15.644a1.837,1.837,0,0,0,.673,1.421,1.826,1.826,0,0,0,.685-1.421l1.068-1.367a2.992,2.992,0,0,0,.633-1.839V3.815h.9Z"/><rect class="cls-3" x="8.635" y="13.187" width="2.884" height="0.357"/><rect class="cls-3" x="8.34" y="11.96" width="3.475" height="0.357"/></g></g></svg>