<svg xmlns="http://www.w3.org/2000/svg" viewBox="0 0 20.15 20.15"><defs><style>.cls-1{isolation:isolate;}.cls-2{mix-blend-mode:multiply;}.cls-3{fill:#e6e7e8;}.cls-4{fill:#231f20;}</style></defs><title>Artboard 11 copy 11</title><g class="cls-1"><g id="Layer_1" data-name="Layer 1"><rect class="cls-3" x="0.75" y="0.75" width="18.66" height="18.66"/><path class="cls-4" d="M20.15,20.15H0V0H20.15ZM1.5,18.65H18.65V1.5H1.5Z"/><path d="M14.28,3.57c0-.08-.13-.14-.2-.23a22.29,22.29,0,0,1-8,0c-.1.14-.2.27-.29.41a9.44,9.44,0,0,0-.64,8.43,7.49,7.49,0,0,0,4.65,4.59,1,1,0,0,0,.6,0,7,7,0,0,0,3.5-2.52A9.53,9.53,0,0,0,14.28,3.57Zm-1.53,7.32H10.89v1.86H9.27V10.89H7.4V9.27H9.27V7.4h1.62V9.27h1.86Z"/></g></g></svg>