<svg xmlns="http://www.w3.org/2000/svg" viewBox="0 0 20.154 20.154"><defs><style>.cls-1{isolation:isolate;}.cls-2{mix-blend-mode:multiply;}.cls-3{fill:#ed1c24;}.cls-4{fill:#231f20;}</style></defs><title>PHOSPHORUS</title><g class="cls-1"><g id="Isolation_Mode" data-name="Isolation Mode"><rect class="cls-3" x="0.749" y="0.749" width="18.656" height="18.656" rx="9.328" ry="9.328"/><path class="cls-4" d="M10.077,20.155A10.078,10.078,0,1,1,20.155,10.077,10.09,10.09,0,0,1,10.077,20.155Zm0-18.655a8.578,8.578,0,1,0,8.578,8.577A8.587,8.587,0,0,0,10.077,1.5Z"/><polygon class="cls-4" points="17.511 3.753 11.875 0.985 8.145 0.985 2.782 3.753 7.996 3.753 3.043 8.706 3.751 9.413 8.643 4.519 4.99 13.286 5.913 13.67 9.577 4.878 9.577 14.224 9.577 16.278 10.577 16.278 10.577 14.224 10.577 4.878 14.242 13.67 15.165 13.286 11.511 4.519 16.404 9.413 17.111 8.706 12.159 3.753 17.511 3.753"/></g></g></svg>