<svg xmlns="http://www.w3.org/2000/svg" viewBox="0 0 20.154 20.154"><defs><style>.cls-1{isolation:isolate;}.cls-2{mix-blend-mode:multiply;}.cls-3{fill:#1b75bc;}.cls-4{fill:#231f20;}.cls-5{fill:#010101;}</style></defs><title>AIRCRAFT</title><g class="cls-1"><g id="Isolation_Mode" data-name="Isolation Mode"><rect class="cls-3" x="0.749" y="0.749" width="18.656" height="18.656" rx="9.328" ry="9.328"/><path class="cls-4" d="M10.077,20.155A10.078,10.078,0,1,1,20.155,10.077,10.09,10.09,0,0,1,10.077,20.155Zm0-18.655a8.578,8.578,0,1,0,8.578,8.577A8.587,8.587,0,0,0,10.077,1.5Z"/><path class="cls-5" d="M10.077,3c0-.007-.006-.011-.009-.011a1.192,1.192,0,0,0-.079.426c-.02.234-.053.535-.071.669l-.034.242-.1,0H9.542a.972.972,0,0,0-.327.025H9.2l0,.011a.178.178,0,0,0-.048.105c-.019.077-.035.136-.049.181-.036.073-.081.124-.12.131a3.413,3.413,0,0,1-.44-.077c-.479-.1-1.225-.278-1.526-.358a.113.113,0,0,0-.043,0C6.9,4.339,6.9,4.4,6.9,4.7V5.08l.991,1.443.991,1.443,0,.441,0,.423L7.322,7.388c-.863-.8-1.6-1.459-1.627-1.458l-.009,0-.011,0a3.07,3.07,0,0,0-.331,1.079.782.782,0,0,0-.017.133v.024a.417.417,0,0,0,0,.076.484.484,0,0,0,.036.084,2.564,2.564,0,0,0,.221.366c.151.233.358.535.593.862.525.732,1.082,1.6,1.58,2.467l.768,1.336.04.58.04.581h.65l.036.239a6.458,6.458,0,0,1,.036.724,1.6,1.6,0,0,0,.043.412c.042.232.128.271.189.593a12.466,12.466,0,0,0,.5,1.678l.009-.012.01.012a12.769,12.769,0,0,0,.505-1.678c.06-.322.147-.361.188-.593a1.6,1.6,0,0,0,.043-.412,6.71,6.71,0,0,1,.036-.724l.036-.239h.65l.04-.581.04-.58.769-1.336c.5-.865,1.054-1.735,1.58-2.467.235-.327.441-.629.592-.862a2.564,2.564,0,0,0,.221-.366.415.415,0,0,0,.036-.084.332.332,0,0,0,0-.076V7.142a.782.782,0,0,0-.017-.133,3.07,3.07,0,0,0-.331-1.079l-.011,0-.008,0c-.032,0-.764.655-1.628,1.458L11.281,8.83l0-.423,0-.441.99-1.443.991-1.443V4.7c0-.3-.008-.364-.075-.356a.114.114,0,0,0-.043,0c-.3.08-1.046.253-1.526.358a3.354,3.354,0,0,1-.44.077c-.039-.007-.084-.058-.12-.131-.014-.045-.029-.1-.048-.181a.191.191,0,0,0-.048-.105l0-.011h-.016a.972.972,0,0,0-.327-.025h-.238l-.1,0-.034-.242c-.019-.134-.051-.435-.072-.669a1.231,1.231,0,0,0-.078-.426S10.081,2.994,10.077,3Z"/></g></g></svg>