<svg xmlns="http://www.w3.org/2000/svg" viewBox="0 0 20.15 20.15"><defs><style>.cls-1{isolation:isolate;}.cls-2{mix-blend-mode:multiply;}.cls-3{fill:#e6e7e8;}.cls-4{fill:#231f20;}</style></defs><title>Artboard 11 copy 12</title><g class="cls-1"><g id="Layer_1" data-name="Layer 1"><rect class="cls-3" x="0.75" y="0.75" width="18.66" height="18.66"/><path class="cls-4" d="M20.15,20.15H0V0H20.15ZM1.5,18.65H18.65V1.5H1.5Z"/><path class="cls-4" d="M16.57,8.64H15V3.77H5V8.64H3.58v5.59H5.12s0,.07,0,.1a1.56,1.56,0,0,0,3.11,0s0-.06,0-.1h3.63a.38.38,0,0,0,0,.1,1.56,1.56,0,0,0,3.11,0s0-.06,0-.1h1.64ZM7,5.77h6V8.64H7Z"/></g></g></svg>