<svg xmlns="http://www.w3.org/2000/svg" viewBox="0 0 20.15 20.15"><defs><style>.cls-1{isolation:isolate;}.cls-2{mix-blend-mode:multiply;}.cls-3{fill:#e6e7e8;}.cls-4{fill:#231f20;}</style></defs><title>Artboard 11 copy 17</title><g class="cls-1"><g id="Layer_1" data-name="Layer 1"><rect class="cls-3" x="0.75" y="0.75" width="18.66" height="18.66"/><path class="cls-4" d="M20.15,20.15H0V0H20.15ZM1.5,18.65H18.65V1.5H1.5Z"/><path d="M5.66,15.22c.46,0,.87.23,1.33.28a14.46,14.46,0,0,1,2.18.09,3.08,3.08,0,0,0,1.79-.2c.39-.08.6.09,1,.09a3.57,3.57,0,0,0,.66-.18,1.4,1.4,0,0,1,.73.06,9.35,9.35,0,0,0,1.84.22h.61a2.63,2.63,0,0,1,.39.06V10.08A6.09,6.09,0,0,0,4,10.08v5.51A3.34,3.34,0,0,1,5.66,15.22Z"/><rect class="cls-3" x="6.76" y="11.23" width="6.63" height="0.75"/><rect class="cls-3" x="8.46" y="8.47" width="3.23" height="0.75"/></g></g></svg>