<svg xmlns="http://www.w3.org/2000/svg" viewBox="0 0 522.56 522.62"><defs><style>.cls-1{isolation:isolate;}.cls-2{mix-blend-mode:multiply;}.cls-3{fill:#231f20;}</style></defs><title>97+ days x6</title><g class="cls-1"><g id="Isolation_Mode" data-name="Isolation Mode"><path class="cls-3" d="M261.28,128C187.77,128,128,187.81,128,261.31s59.8,133.31,133.31,133.31,133.31-59.8,133.31-133.31S334.79,128,261.28,128Zm0,260.53A127.22,127.22,0,1,1,388.5,261.31,127.36,127.36,0,0,1,261.28,388.53Z"/><path class="cls-3" d="M261.28,165.84a95.47,95.47,0,1,0,95.47,95.47A95.58,95.58,0,0,0,261.28,165.84Zm0,184.85a89.38,89.38,0,1,1,89.38-89.38A89.48,89.48,0,0,1,261.28,350.69Z"/><path class="cls-3" d="M261.28,193.12a68.2,68.2,0,1,0,68.2,68.19A68.27,68.27,0,0,0,261.28,193.12Zm0,130.3a62.11,62.11,0,1,1,62.11-62.11A62.18,62.18,0,0,1,261.28,323.42Z"/><path class="cls-3" d="M261.28,212.6A48.71,48.71,0,1,0,310,261.31,48.76,48.76,0,0,0,261.28,212.6Zm0,91.33a42.62,42.62,0,1,1,42.62-42.62A42.67,42.67,0,0,1,261.28,303.93Z"/><circle class="cls-3" cx="261.28" cy="261.31" r="30.44" transform="translate(-108.25 261.29) rotate(-45)"/><path class="cls-3" d="M261.28,0C117.21,0,0,117.24,0,261.31S117.21,522.59,261.28,522.59,522.56,405.38,522.56,261.31,405.35,0,261.28,0Zm0,516.47C120.57,516.5,6.09,402,6.09,261.31S120.57,6.12,261.28,6.12,516.47,120.6,516.47,261.31,402,516.5,261.28,516.5Z"/><path class="cls-3" d="M261.28,74.68c-102.91,0-186.63,83.72-186.63,186.63s83.72,186.63,186.63,186.63,186.63-83.72,186.63-186.63S364.19,74.68,261.28,74.68Zm0,367.17c-99.55,0-180.54-81-180.54-180.54s81-180.54,180.54-180.54,180.54,81,180.54,180.54S360.83,441.85,261.28,441.85Z"/></g></g></svg>