<svg xmlns="http://www.w3.org/2000/svg" viewBox="0 0 20.15 20.15"><defs><style>.cls-1{isolation:isolate;}.cls-2{mix-blend-mode:multiply;}.cls-3{fill:#e6e7e8;}.cls-4{fill:#231f20;}</style></defs><title>Artboard 11 copy 14</title><g class="cls-1"><g id="Layer_1" data-name="Layer 1"><rect class="cls-3" x="0.75" y="0.75" width="18.66" height="18.66"/><path class="cls-4" d="M20.15,20.15H0V0H20.15ZM1.5,18.65H18.65V1.5H1.5Z"/><polygon class="cls-4" points="14.5 12.59 10.98 12.59 10.98 10.19 11.97 10.19 11.97 3.21 8.18 3.21 8.18 10.19 9.18 10.19 9.18 12.59 7.4 12.59 5.66 12.59 3.85 12.59 3.85 14.39 3.85 16.95 5.66 16.95 5.66 14.39 7.4 14.39 7.4 16.95 9.21 16.95 9.21 14.39 10.95 14.39 10.95 16.95 12.76 16.95 12.76 14.39 14.5 14.39 14.5 16.95 16.3 16.95 16.3 14.39 16.3 12.59 14.5 12.59"/></g></g></svg>