<svg xmlns="http://www.w3.org/2000/svg" viewBox="0 0 20.154 20.154"><defs><style>.cls-1{isolation:isolate;}.cls-2{mix-blend-mode:multiply;}.cls-3{fill:#00a651;}.cls-4{fill:#231f20;}</style></defs><title>FLARE BOMB</title><g class="cls-1"><g id="Isolation_Mode" data-name="Isolation Mode"><rect class="cls-3" x="0.749" y="0.749" width="18.656" height="18.656" rx="9.328" ry="9.328"/><path class="cls-4" d="M10.077,20.155A10.078,10.078,0,1,1,20.155,10.077,10.09,10.09,0,0,1,10.077,20.155Zm0-18.655a8.578,8.578,0,1,0,8.578,8.577A8.587,8.587,0,0,0,10.077,1.5Z"/><path class="cls-4" d="M16.887,10.827v-1.5H13a2.98,2.98,0,0,0-.326-.782L14.3,6.914l-1.06-1.061L11.609,7.485a2.98,2.98,0,0,0-.782-.326V4.853h-1.5V7.159a3,3,0,0,0-.869.373L5.271,4.545,4.246,5.639,7.438,8.631a3,3,0,0,0-.279.7H4.853v1.5H7.159a3.022,3.022,0,0,0,.326.781L5.853,13.241l1.06,1.06,1.633-1.632A2.993,2.993,0,0,0,9.327,13v4.169h1.5V13a2.993,2.993,0,0,0,.781-.326L13.241,14.3l1.06-1.06-1.632-1.633A2.974,2.974,0,0,0,13,10.827Z"/></g></g></svg>