<svg xmlns="http://www.w3.org/2000/svg" viewBox="0 0 20.15 20.15"><defs><style>.cls-1{isolation:isolate;}.cls-2{mix-blend-mode:multiply;}.cls-3{fill:#e6e7e8;}.cls-4{fill:#231f20;}</style></defs><title>Artboard 11 copy 16</title><g class="cls-1"><g id="Layer_1" data-name="Layer 1"><rect class="cls-3" x="0.75" y="0.75" width="18.66" height="18.66"/><path class="cls-4" d="M20.15,20.15H0V0H20.15ZM1.5,18.65H18.65V1.5H1.5Z"/><path d="M13.53,10.59l.85-.51V9.71c-.61-.64-1.48-1-1.93-1.91A1.48,1.48,0,0,0,13,7.52V7a11.53,11.53,0,0,1-2.77-3.43H9.91A11.35,11.35,0,0,1,7.15,7v.51a1.37,1.37,0,0,0,.55.28c-.45.89-1.32,1.27-1.93,1.91v.37l.86.51-1.9,1.64v.46a2.88,2.88,0,0,0,3,.64,2.81,2.81,0,0,0,1.53.8V17h1.7V14.13a2.82,2.82,0,0,0,1.52-.8,2.88,2.88,0,0,0,3-.64v-.46Z"/></g></g></svg>