<svg xmlns="http://www.w3.org/2000/svg" viewBox="0 0 20.15 20.15"><defs><style>.cls-1{isolation:isolate;}.cls-2{mix-blend-mode:multiply;}.cls-3{fill:#e6e7e8;}.cls-4{fill:#231f20;}</style></defs><title>Artboard 11 copy 13</title><g class="cls-1"><g id="Layer_1" data-name="Layer 1"><rect class="cls-3" x="0.75" y="0.75" width="18.66" height="18.66"/><path class="cls-4" d="M20.15,20.16H0V0H20.15ZM1.5,18.66H18.65V1.5H1.5Z"/><path d="M10.08,6.26a3.91,3.91,0,0,1-2.37,0h0a5.57,5.57,0,0,0-.38,5A4.29,4.29,0,0,0,10,13.91h.12a4.11,4.11,0,0,0,2-1.45,5.53,5.53,0,0,0,.29-6.16A3.91,3.91,0,0,1,10.08,6.26Z"/><path d="M14.28,3.57c0-.08-.13-.14-.2-.23a5.74,5.74,0,0,1-4,0,5.79,5.79,0,0,1-4,0c-.1.14-.2.27-.29.41a9.44,9.44,0,0,0-.64,8.43,7.49,7.49,0,0,0,4.65,4.59,1,1,0,0,0,.6,0,7,7,0,0,0,3.5-2.52A9.53,9.53,0,0,0,14.28,3.57Zm-.8,8.09a6.24,6.24,0,0,1-.72,1.25,4.76,4.76,0,0,1-2.37,1.71.81.81,0,0,1-.31.05,1.13,1.13,0,0,1-.32-.05,5.07,5.07,0,0,1-3.13-3.09,6.48,6.48,0,0,1,.25-5.28,6.49,6.49,0,0,1,.53-.83l.28.08a3.2,3.2,0,0,0,2.26,0l.13,0,.13,0a3.23,3.23,0,0,0,2.25,0l.24-.09.17.19A4.36,4.36,0,0,1,13.62,7,6.36,6.36,0,0,1,14,8.58,6.24,6.24,0,0,1,13.48,11.66Z"/></g></g></svg>